<svg width="427" height="100" viewBox="0 0 427 100" fill="none" xmlns="http://www.w3.org/2000/svg">
<g clip-path="url(#clip0_20_98)">
<path d="M115.387 32.8938H111.299C110.996 32.8938 110.542 33.045 110.239 33.1962L105.546 36.2204L98.2785 19.8898C96.9159 16.7145 93.8878 14.5975 90.4055 14.4463L70.723 13.2367C68.452 13.0854 66.3323 13.0854 64.0613 13.0854C61.7902 13.0854 59.6706 13.0854 57.3995 13.2367L37.717 14.4463C34.2348 14.5975 31.2067 16.7145 29.844 19.8898L22.5767 36.2204L17.8831 33.1962C17.5803 33.045 17.2775 32.8938 16.8233 32.8938H12.7354C11.6756 32.8938 10.9186 33.6498 10.9186 34.7083V35.4643C10.9186 36.0692 11.2214 36.5228 11.5242 36.8252L15.9149 40.4542C16.2177 40.6054 16.3691 40.7566 16.6719 40.9078C16.8233 40.9078 16.8233 40.9078 16.9747 40.9078C17.1261 40.9078 17.4289 40.9078 17.5803 40.9078L20.7598 40.0006L20.3056 41.9663C20.3056 42.1175 20.1542 42.2687 20.0028 42.2687L14.4009 49.5267C14.0981 49.8291 13.7952 50.2828 13.6438 50.7364C13.0382 51.9461 12.7354 53.3069 12.8868 54.819L16.0663 87.3289C16.0663 87.7825 16.5205 88.2362 16.9747 88.2362H25.9075C26.3618 88.2362 26.816 87.7825 26.816 87.3289V81.4318C26.816 80.3733 27.7244 79.466 28.7842 79.6172L51.192 80.6757C53.3116 80.8269 55.4313 80.8269 57.5509 80.9781C61.7902 81.1293 66.1809 81.1293 70.4202 80.9781C72.5399 80.9781 74.6595 80.8269 76.7792 80.6757L99.1869 79.6172C100.247 79.6172 101.155 80.3733 101.155 81.4318V87.3289C101.155 87.7825 101.609 88.2362 102.064 88.2362H110.996C111.451 88.2362 111.905 87.9337 111.905 87.3289L115.084 54.819C115.236 53.4582 114.933 51.9461 114.327 50.7364C114.176 50.2828 113.873 49.9804 113.57 49.5267L107.968 42.2687C107.817 42.1175 107.817 41.9663 107.666 41.9663L107.211 40.0006L110.391 40.9078C110.542 40.9078 110.845 40.9078 110.996 40.9078C111.148 40.9078 111.148 40.9078 111.299 40.9078C111.602 40.9078 111.905 40.7566 112.056 40.4542L116.447 36.8252C116.901 36.5228 117.053 35.918 117.053 35.4643V34.7083C117.204 33.6498 116.447 32.8938 115.387 32.8938ZM33.6291 63.8916C29.9954 63.8916 26.9674 60.8674 26.9674 57.2384C26.9674 53.6094 29.9954 50.5852 33.6291 50.5852C37.2628 50.5852 40.2909 53.6094 40.2909 57.2384C40.2909 60.8674 37.2628 63.8916 33.6291 63.8916ZM64.2127 38.4885H29.5412C28.1786 38.4885 27.2702 36.9764 27.8758 35.7667L35.7488 20.1923C36.0516 19.5874 36.6572 19.285 37.2628 19.1338L56.6425 18.0753C61.6388 17.7729 66.6351 17.7729 71.7829 18.0753L91.0111 19.1338C91.6167 19.1338 92.2224 19.5874 92.5252 20.1923L100.55 35.7667C101.155 36.9764 100.247 38.4885 98.8841 38.4885H64.2127ZM94.7962 63.8916C91.1625 63.8916 88.1345 60.8674 88.1345 57.2384C88.1345 53.6094 91.1625 50.5852 94.7962 50.5852C98.4299 50.5852 101.458 53.6094 101.458 57.2384C101.458 60.8674 98.4299 63.8916 94.7962 63.8916Z" fill="black"/>
<path d="M138.682 38.9589V11.3819H148.217C156.958 11.3819 161.13 16.937 161.13 25.2696C161.13 33.4039 156.759 39.1573 148.217 39.1573L138.682 38.9589ZM143.251 34.7926H147.82C153.581 34.7926 156.163 31.2215 156.163 25.0712C156.163 19.1193 153.581 15.3498 147.82 15.3498H143.251V34.7926ZM181.988 38.9589L174.837 26.6584H171.857V38.9589H167.288V11.3819H176.823C182.783 11.3819 185.365 14.953 185.365 19.3177C185.365 23.0873 182.981 25.8648 179.406 26.46L187.352 38.9589H181.988ZM171.857 15.1514V23.0873H176.227C179.604 23.0873 180.995 21.5001 180.995 19.1193C180.995 16.7386 179.604 15.1514 176.227 15.1514H171.857ZM192.517 38.9589V11.3819H197.086V38.9589H192.517ZM222.513 11.3819H227.479L217.15 38.9589H212.183L202.052 11.3819H207.018L214.766 33.4039L222.513 11.3819ZM247.742 15.5482H237.015V23.0873H246.55V27.2536H237.015V34.7926H247.742V38.9589H232.247V11.3819H247.742V15.5482ZM268.6 34.991H281.314V38.9589H262.243V35.5862L273.368 24.2776C275.553 22.0953 276.149 20.3097 276.149 18.9209C276.149 16.1434 274.361 14.7546 271.779 14.7546C269.196 14.7546 267.21 16.1434 267.21 19.9129V21.8969L262.839 21.5001V19.9129C262.839 14.1594 266.415 10.9851 271.779 10.9851C276.745 10.9851 280.519 13.961 280.519 18.9209C280.519 21.8969 279.328 24.0792 276.745 26.6584L268.6 34.991ZM302.371 34.7926H311.509V38.9589H297.604V11.3819H302.173V34.7926H302.371ZM331.772 15.5482H321.044V23.0873H330.58V27.2536H321.044V34.7926H331.772V38.9589H316.277V11.3819H331.772V15.5482ZM356.404 38.9589L354.219 32.8087H342.102L339.916 38.9589H335.149L345.28 11.3819H350.842L361.172 38.9589H356.404ZM343.492 28.8407H352.829L348.26 15.7466L343.492 28.8407ZM380.64 38.9589L373.489 26.6584H370.509V38.9589H365.94V11.3819H375.475C381.435 11.3819 384.017 14.953 384.017 19.3177C384.017 23.0873 381.633 25.8648 378.058 26.46L386.004 38.9589H380.64ZM370.509 15.1514V23.0873H374.879C378.256 23.0873 379.647 21.5001 379.647 19.1193C379.647 16.7386 378.256 15.1514 374.879 15.1514H370.509ZM410.04 11.3819H414.609V38.9589H409.445L395.936 17.929V38.9589H391.367V11.3819H396.532L410.04 32.4119C410.04 32.2135 410.04 11.3819 410.04 11.3819Z" fill="black"/>
<path d="M138.678 82.4657V62.6351H145.534C151.82 62.6351 154.82 66.6298 154.82 72.6218C154.82 78.4711 151.677 82.6084 145.534 82.6084L138.678 82.4657ZM141.963 79.4697H145.249C149.391 79.4697 151.248 76.9017 151.248 72.4791C151.248 68.1991 149.391 65.4884 145.249 65.4884H141.963V79.4697ZM168.39 70.7671C169.105 69.3404 170.819 68.3418 172.962 68.1991V71.1951C170.105 71.1951 168.533 72.1938 168.533 75.3324V82.4657H165.248V68.4844H168.39V70.7671ZM183.961 65.7738C182.818 65.7738 181.961 64.9178 181.961 63.7765C181.961 62.6351 182.818 61.7791 183.961 61.7791C184.961 61.7791 185.961 62.6351 185.961 63.7765C185.818 64.9178 184.961 65.7738 183.961 65.7738ZM182.247 82.4657V68.4844H185.532V82.4657H182.247ZM205.674 68.4844H209.103L203.246 82.4657H200.532L194.675 68.4844H198.103L201.817 78.7564L205.674 68.4844ZM219.959 65.7738C218.817 65.7738 217.959 64.9178 217.959 63.7765C217.959 62.6351 218.817 61.7791 219.959 61.7791C220.959 61.7791 221.959 62.6351 221.959 63.7765C221.959 64.9178 220.959 65.7738 219.959 65.7738ZM218.245 82.4657V68.4844H221.531V82.4657H218.245ZM240.244 68.1991C243.387 68.1991 245.244 69.9111 245.244 73.0498V82.4657H241.958V73.7631C241.958 71.6231 240.673 70.7671 239.244 70.7671C237.53 70.7671 235.959 71.7658 235.959 74.3338V82.4657H232.816V68.4844H235.959V70.1964C236.959 68.9124 238.387 68.1991 240.244 68.1991ZM266.1 68.4844H269.243V81.6097C269.243 86.7457 266.386 89.171 262.1 89.171C258.386 89.171 256.1 87.459 255.101 84.891L257.815 83.7497C258.672 85.747 259.957 86.7457 262.1 86.7457C264.814 86.7457 266.1 85.0337 266.1 82.0377V79.8977C265.243 81.1817 263.529 82.1804 261.529 82.1804C258.1 82.1804 255.101 79.3271 255.101 75.1897C255.101 71.0524 257.958 68.1991 261.529 68.1991C263.529 68.1991 265.386 69.1978 266.1 70.6244V68.4844ZM262.243 79.3271C264.529 79.3271 266.386 77.3297 266.386 75.0471C266.386 72.7644 264.671 70.7671 262.243 70.7671C259.957 70.7671 258.1 72.6218 258.1 75.0471C258.1 77.4724 259.957 79.3271 262.243 79.3271ZM301.67 82.7511C297.527 82.7511 294.241 80.7537 293.67 77.1871L297.098 76.3311C297.527 78.6137 299.384 79.8977 301.813 79.8977C303.812 79.8977 305.527 79.0417 305.527 77.0444C305.527 74.9044 303.098 74.1911 300.527 73.4778C297.527 72.6218 294.384 71.6231 294.384 67.9138C294.384 64.2045 297.384 62.2071 301.241 62.2071C304.67 62.2071 308.098 63.6338 308.812 67.2004L305.527 68.0564C305.098 65.9164 303.384 65.0604 301.384 65.0604C299.527 65.0604 297.813 65.9164 297.813 67.9138C297.813 69.7684 299.955 70.3391 302.384 71.0524C305.527 71.9084 309.098 72.9071 309.098 76.9017C308.812 81.0391 305.384 82.7511 301.67 82.7511ZM325.383 82.7511C321.24 82.7511 318.097 79.8977 318.097 75.4751C318.097 71.0524 321.097 68.1991 325.383 68.1991C328.668 68.1991 331.24 69.9111 332.097 73.0498L329.097 73.4778C328.526 71.7658 327.24 70.7671 325.383 70.7671C323.097 70.7671 321.383 72.6218 321.383 75.4751C321.383 78.3284 323.097 80.1831 325.383 80.1831C327.097 80.1831 328.526 79.3271 329.097 77.4724L332.097 77.9004C331.24 80.8964 328.668 82.7511 325.383 82.7511ZM349.525 68.1991C352.524 68.1991 354.381 69.9111 354.381 73.3351V82.4657H351.096V73.9058C351.096 71.6231 349.81 70.7671 348.239 70.7671C346.525 70.7671 344.953 71.7658 344.953 74.3338V82.4657H341.811V61.0658H344.953V70.1964C346.096 68.9124 347.667 68.1991 349.525 68.1991ZM371.666 82.7511C367.381 82.7511 364.238 80.0404 364.238 75.4751C364.238 70.9098 367.381 68.1991 371.666 68.1991C375.952 68.1991 379.094 70.9098 379.094 75.4751C379.094 80.0404 375.952 82.7511 371.666 82.7511ZM371.666 80.1831C374.095 80.1831 375.952 78.3284 375.952 75.4751C375.952 72.6218 374.238 70.7671 371.666 70.7671C369.238 70.7671 367.524 72.6218 367.524 75.4751C367.381 78.3284 369.238 80.1831 371.666 80.1831ZM395.379 82.7511C391.094 82.7511 387.951 80.0404 387.951 75.4751C387.951 70.9098 391.094 68.1991 395.379 68.1991C399.665 68.1991 402.808 70.9098 402.808 75.4751C402.808 80.0404 399.665 82.7511 395.379 82.7511ZM395.379 80.1831C397.808 80.1831 399.665 78.3284 399.665 75.4751C399.665 72.6218 397.951 70.7671 395.379 70.7671C392.951 70.7671 391.237 72.6218 391.237 75.4751C391.094 78.3284 392.951 80.1831 395.379 80.1831ZM412.807 82.4657V61.0658H416.093V82.4657H412.807Z" fill="#E80404"/>
</g>
<defs>
<clipPath id="clip0_20_98">
<rect width="427" height="100" fill="white"/>
</clipPath>
</defs>
</svg>
